<?xml version="1.0" encoding="UTF-8" standalone="no" ?>
<!DOCTYPE svg PUBLIC "-//W3C//DTD SVG 1.1//EN" "http://www.w3.org/Graphics/SVG/1.1/DTD/svg11.dtd">
<svg xmlns="http://www.w3.org/2000/svg" xmlns:xlink="http://www.w3.org/1999/xlink" version="1.1" width="1080" height="1080" viewBox="0 0 1080 1080" xml:space="preserve">
<desc>Created with Fabric.js 5.2.4</desc>
<defs>
</defs>
<g transform="matrix(1 0 0 1 540 540)" id="45fd25d2-2476-41b4-bc61-c6b54cfa15ac"  >
</g>
<g transform="matrix(1 0 0 1 540 540)" id="adb646d3-dc37-4d81-9e96-c01c544d806b"  >
<rect style="stroke: none; stroke-width: 1; stroke-dasharray: none; stroke-linecap: butt; stroke-dashoffset: 0; stroke-linejoin: miter; stroke-miterlimit: 4; fill: rgb(255,255,255); fill-rule: nonzero; opacity: 1; visibility: hidden;" vector-effect="non-scaling-stroke"  x="-540" y="-540" rx="0" ry="0" width="1080" height="1080" />
</g>
<g transform="matrix(1 0 0 1 540 540)"  >
<g style="" vector-effect="non-scaling-stroke"   >
		<g transform="matrix(1 0 0 1 15.67 -123.49)"  >
<path style="stroke: none; stroke-width: 1; stroke-dasharray: none; stroke-linecap: butt; stroke-dashoffset: 0; stroke-linejoin: miter; stroke-miterlimit: 4; fill: rgb(255,255,255); fill-rule: nonzero; opacity: 1;" vector-effect="non-scaling-stroke"  transform=" translate(-512.96, -373.43)" d="M 306.367981 416.57135 C 299.74411 408.213226 295.240265 399.153687 292.784119 389.177948 C 291.818817 385.257233 290.103577 382.585663 286.648621 380.204071 C 259.186951 361.273621 246.554993 334.687469 247.837906 301.654114 C 248.334396 288.870117 252.788696 276.916138 259.671539 266.044983 C 261.318604 263.443512 261.59903 261.145721 260.828705 258.117432 C 251.535355 221.583801 265.190338 186.622131 296.757904 166.226944 C 299.409821 164.513565 300.76178 162.509369 301.498535 159.66362 C 311.080505 122.652283 335.632141 100.1035 371.072174 88.52269 C 379.394806 85.803093 388.252899 84.51545 397.142334 86.439362 C 399.315765 86.909744 400.648834 85.789497 401.768799 84.241524 C 414.33548 66.87207 432.247681 58.82896 452.702209 56.037254 C 478.500977 52.516155 501.737213 66.084808 510.800171 88.750732 C 511.462555 90.407356 512.168945 92.046379 512.920227 93.850441 C 515.055359 92.50663 515.164551 90.340401 515.94104 88.629356 C 527.579712 62.983669 551.457214 50.845325 578.926453 57.002583 C 597.089172 61.073772 613.171082 68.864044 624.581482 84.334312 C 625.625122 85.749283 626.789856 86.408257 628.791321 86.241539 C 650.776855 84.410202 670.044067 91.623825 687.46759 104.448402 C 706.522034 118.473381 719.621216 136.546463 724.500488 160.062454 C 725.026611 162.59819 726.504456 164.304581 728.793274 165.813278 C 755.832764 183.636887 769.197388 208.74321 768.171204 241.20549 C 768.009827 246.311417 767.248413 251.529175 765.83252 256.425751 C 764.563599 260.813995 765.167908 264.154358 767.446289 268.053253 C 788.581543 304.221741 777.502747 353.368103 742.59906 377.663544 C 737.378357 381.297516 734.597961 385.368225 732.755737 391.518829 C 724.943481 417.602234 706.425842 433.995361 682.211914 444.699371 C 677.199219 446.915253 671.979126 448.608856 666.508667 449.459869 C 665.272217 449.652191 663.872437 450.296844 663.01239 451.183746 C 647.828674 466.840942 634.028259 483.526337 628.125244 505.06955 C 625.392822 515.041748 622.761292 524.685425 613.68988 530.958252 C 612.044067 532.096313 612.368286 533.895386 612.360046 535.531494 C 612.330688 541.36322 612.281128 547.195923 612.358093 553.026672 C 612.40155 556.314819 611.02887 558.746948 608.508972 560.729187 C 603.66272 564.541504 603.960205 571.395874 609.075867 574.917603 C 614.533447 578.674683 614.418762 585.671387 608.83844 589.402893 C 603.724182 592.822754 603.773499 599.67157 609.043884 602.755554 C 612.333435 604.680359 613.4599 607.508057 613.334351 611.110474 C 613.20282 614.883545 611.195618 617.445496 607.879395 618.748413 C 605.642029 619.627502 604.490601 620.495728 604.255737 623.210999 C 602.508423 643.409729 589.864685 658.20929 570.13446 663.230652 C 566.589905 664.132751 564.076355 665.607788 561.913818 668.80188 C 554.048767 680.418579 542.661987 686.800598 529.09198 689.664368 C 515.794006 692.470825 502.690796 692.025208 489.723236 687.836365 C 478.808624 684.310669 470.454865 677.500366 464.213165 668.023376 C 462.840118 665.938599 461.293976 664.815247 458.769409 664.226746 C 443.097595 660.573364 431.113556 652.208008 425.088379 636.716553 C 423.983948 633.876831 422.297852 632.297668 419.363159 631.146912 C 412.414062 628.421936 411.620117 620.116882 417.582306 615.47998 C 422.073242 611.987366 422.004822 604.042297 417.452515 600.40802 C 412.136017 596.163635 412.336334 589.923401 417.923035 585.74823 C 421.902008 582.774597 421.946411 574.866577 417.921051 571.723572 C 414.384857 568.962463 412.658508 565.403809 412.66629 560.944824 C 412.681091 552.44696 412.593567 543.947876 412.726715 535.452026 C 412.769073 532.750549 412.153809 530.639465 409.978271 528.908203 C 403.92569 524.091614 401.213684 517.416077 399.546539 510.099426 C 394.117523 486.273224 379.875122 467.846252 363.115814 450.98288 C 361.992249 449.852325 360.585297 449.618958 359.102295 449.246979 C 338.18692 444.000946 320.117065 434.095642 306.367981 416.57135 M 427.581696 373.899994 C 430.601105 378.304596 435.144897 380.23761 440.052887 381.558807 C 441.330933 381.902863 442.651947 382.087555 443.929688 382.432556 C 448.293274 383.610596 450.340485 386.728333 449.961792 390.985565 C 449.558105 395.524017 446.286682 397.600983 442.005127 397.697021 C 438.876953 397.767151 435.724976 397.502197 432.645172 396.569122 C 414.486694 391.06778 403.301514 369.758514 408.202698 349.874695 C 414.996094 322.314362 442.669678 309.278076 468.392029 321.4729 C 470.520172 322.481812 472.468811 324.179626 475.224365 324.208405 C 473.293549 317.449554 469.322662 312.207611 461.814026 306.22467 C 446.285675 293.851532 428.484802 287.873993 408.742584 287.311676 C 404.591034 287.19342 400.410431 287.545563 396.313751 286.439545 C 389.004395 284.466217 387.06662 277.859436 392.296783 272.487885 C 394.969574 269.742859 397.811279 267.158203 400.417999 264.353638 C 407.498657 256.735596 411.703247 248.056335 410.846497 237.267563 C 409.993988 226.532028 403.736664 218.359116 393.805664 215.754211 C 383.851898 213.143356 375.90918 216.450638 369.729309 225.779388 C 367.034393 229.847488 362.963531 231.066559 358.94165 229.009872 C 355.400543 227.199036 353.753418 222.852478 355.179688 218.668869 C 356.26889 215.474014 358.219116 212.800751 360.466522 210.275894 C 363.737579 206.601028 368.085571 204.523041 372.202881 202.228241 C 371.93869 200.099106 370.304626 199.278885 369.268188 198.053741 C 358.635254 185.484711 354.805328 171.297714 359.378357 155.286667 C 361.115662 149.204086 365.431396 146.504333 369.97113 147.936005 C 374.2854 149.29657 375.8992 153.546844 374.720642 159.546326 C 374.025909 163.083023 373.034546 166.513351 373.754242 170.351791 C 375.737091 180.927139 381.554596 188.453232 390.638824 193.872711 C 397.209076 197.792358 403.949707 201.44313 409.967102 206.264145 C 427.99527 220.70784 432.449677 244.633362 420.717224 264.534515 C 419.485413 266.623962 418.319763 268.75238 416.870361 271.309143 C 428.41861 272.522308 439.168976 274.283844 449.346375 278.688599 C 469.807922 287.544342 485.518585 300.973053 492.806183 322.782532 C 494.776611 328.679413 495.687317 334.796875 495.707367 340.918213 C 495.768372 359.525177 498.737366 378.151733 496.31369 396.718811 C 491.257996 435.449097 452.892853 460.628967 415.81424 448.616364 C 405.027222 445.121582 396.712463 449.727875 386.637878 450.591095 C 389.82608 454.352844 392.523071 457.296967 394.955231 460.445679 C 405.720642 474.38266 412.350006 490.191132 416.321899 507.274048 C 417.927887 514.181335 420.251068 515.644165 427.243225 515.648743 C 450.741272 515.66394 474.239349 515.65448 497.737396 515.648254 C 504.556824 515.646423 504.595001 515.636841 504.59671 508.742126 C 504.607849 464.24585 504.781067 419.748657 504.560638 375.253448 C 504.16275 294.943298 505.953278 214.622559 503.579498 134.324478 C 503.127502 119.036613 499.655457 104.292801 491.575684 91.056351 C 486.379333 82.543533 479.206696 76.069534 469.185577 73.90435 C 461.80896 72.310539 454.317291 72.863419 446.899811 74.441208 C 410.645569 82.152924 398.919647 117.737976 414.96228 141.786407 C 417.693665 145.880829 416.766479 150.792114 413.65274 153.108902 C 410.560852 155.409393 405.920227 154.742584 402.332886 151.352051 C 394.530273 143.977585 392.303802 134.310486 391.728149 124.178398 C 391.335388 117.265755 391.652985 110.312752 391.652985 103.220375 C 386.951965 103.306725 382.990417 103.101135 379.035583 103.949875 C 360.348541 107.960251 345.559601 118.492523 332.959442 132.208771 C 314.899414 151.868454 312.879425 179.290054 323.381439 200.564697 C 326.017975 205.905716 330.285248 209.901123 334.059601 214.330139 C 337.539948 218.414124 337.42926 222.743301 334.105682 225.928055 C 330.587585 229.29921 325.955261 229.340073 321.935486 225.989685 C 321.042969 225.245773 320.231873 224.39682 319.432098 223.55014 C 310.33374 213.918655 303.948547 202.781647 300.805756 189.858643 C 300.463776 188.452332 300.715454 186.802338 299.095551 185.987 C 297.908936 185.882767 297.261658 186.753784 296.54306 187.391754 C 278.996216 202.969482 272.041534 222.412033 275.252716 245.604675 C 278.449188 268.690857 290.498169 284.865936 312.331268 293.523346 C 314.165619 294.250671 316.073639 295.063568 317.580627 296.288147 C 320.613861 298.752899 322.645477 302.034637 320.603424 305.894073 C 318.621246 309.640289 315.23526 310.976593 310.846405 309.84314 C 301.983582 307.554321 294.234436 303.19043 286.867493 297.905853 C 280.602905 293.412048 275.843018 287.492126 271.359772 281.49707 C 269.029327 282.534393 268.865906 284.336823 268.313812 285.82547 C 263.548615 298.674591 262.802032 311.802094 266.395264 324.998627 C 271.007294 341.936981 279.584442 356.270721 295.107056 365.480957 C 302.875275 370.090118 311.11142 372.563324 320.677216 368.976471 C 317.223358 363.98999 313.887512 359.497162 310.912537 354.776886 C 308.516754 350.975555 306.460419 346.92038 306.695038 342.189606 C 307.011444 335.81015 312.683472 332.927582 318.033936 336.362915 C 320.577881 337.996277 321.703613 340.613647 322.916809 343.1604 C 331.321716 360.803802 345.593689 370.330505 364.504639 373.891266 C 368.942078 374.726837 373.069122 373.929688 377.349213 373.727753 C 380.977875 373.55658 384.058655 374.973419 385.092529 378.710999 C 386.237335 382.849426 384.255005 385.840881 380.588776 387.688477 C 378.344635 388.819489 375.885406 389.193298 373.351532 389.365662 C 361.81427 390.150452 350.829346 388.15329 340.36084 383.224884 C 339.052612 382.608978 337.728668 381.288208 336.19986 381.966248 C 328.239166 385.496857 319.613831 386.182587 311.189758 387.427002 C 314.141479 414.973602 364.78775 444.237305 388.500336 432.255066 C 385.011902 426.799316 380.81369 421.762634 378.704559 415.548279 C 377.170441 411.028137 378.78537 406.128265 382.434601 404.350739 C 385.977997 402.624695 389.373413 404.149231 392.213379 408.746277 C 392.651062 409.454803 393.113678 410.152161 393.494812 410.890747 C 402.291779 427.939392 416.231598 436.033295 435.400787 434.609161 C 450.181396 433.511078 462.992645 428.17923 471.583954 415.48175 C 483.197571 398.317474 485.341766 379.28363 480.601624 359.586548 C 477.116699 345.105347 467.040009 336.367401 452.522675 333.750305 C 442.592163 331.960052 433.828827 335.628235 428.177277 344.115204 C 422.010834 353.375336 421.226501 363.348511 427.581696 373.899994 M 554.499939 515.652954 C 569.331116 515.655823 584.162231 515.666077 598.993408 515.658569 C 606.835388 515.654602 609.112793 513.893616 610.503357 506.261078 C 613.58313 489.356689 620.902771 474.403412 631.202087 460.812408 C 633.675781 457.548035 636.388855 454.465118 639.332703 450.884125 C 632.86377 449.41394 626.792053 448.553955 621.102051 446.275116 C 619.403381 445.594788 617.843628 446.360321 616.294006 446.984924 C 604.376282 451.788483 592.101013 452.39035 579.526184 450.363892 C 557.324585 446.786072 534.767761 424.37442 530.544678 402.340759 C 528.122681 389.703857 529.709473 377.124084 529.824158 364.541077 C 529.934448 352.43515 529.607605 340.202026 532.194763 328.262024 C 538.579102 298.797394 566.858765 278.608307 592.545593 273.673706 C 597.702698 272.682983 602.919067 272.000641 608.107971 271.176147 C 608.218262 268.216431 606.306519 266.583923 605.248047 264.588654 C 596.264404 247.654587 596.537964 231.154343 607.596069 215.211273 C 612.445801 208.219223 619.207214 203.358704 626.381409 199.024261 C 630.088013 196.784851 633.904358 194.716202 637.524658 192.346558 C 649.434265 184.551224 654.216003 172.648087 651.135376 158.819824 C 649.999329 153.720398 652.209351 149.467056 656.72583 148.060593 C 660.579651 146.860489 664.359619 149.154083 666.36853 153.930588 C 666.689941 154.694824 667.046692 155.467453 667.208557 156.272125 C 670.14563 170.875244 668.414246 184.415359 658.117126 195.999588 C 656.385193 197.948059 654.729248 199.96405 652.75885 202.276688 C 660.641724 205.384048 666.696716 209.856964 669.958801 217.329895 C 672.362915 222.837219 671.329041 227.078629 667.271179 229.001648 C 662.544312 231.241714 658.231812 229.578491 655.418396 224.229141 C 653.377197 220.348114 650.531677 217.521881 646.239685 216.340591 C 637.861023 214.034531 629.892273 214.720657 623.339111 220.840851 C 616.048096 227.650101 614.12915 236.396866 615.856201 246.007126 C 617.86853 257.204437 625.500488 264.75473 633.288025 272.095154 C 636.025208 274.675201 637.287964 277.547668 636.062195 281.006073 C 634.921936 284.223236 632.198364 285.975006 628.812378 286.329376 C 624.674683 286.762451 620.519165 287.164246 616.363708 287.264435 C 596.124084 287.752594 578.340393 294.748413 562.783386 307.499634 C 557.493835 311.835144 553.288513 317.10257 550.878601 323.959778 C 553.357422 324.059937 554.783997 322.812683 556.383911 322.069 C 566.168579 317.521149 576.378174 315.68869 586.94574 318.278137 C 610.726746 324.105499 624.110046 348.542511 616.577759 372.500671 C 612.040527 386.932678 602.510803 395.952789 587.020264 397.796661 C 579.799988 398.656067 575.667358 394.777954 576.721008 388.169556 C 577.499207 383.288177 581.471436 382.533508 585.212708 381.824402 C 590.677002 380.788757 595.597412 378.722931 598.625366 373.984528 C 603.963928 365.63028 604.374695 356.645081 599.979614 347.826874 C 595.561157 338.961792 588.041199 333.929169 578.132568 333.427948 C 563.546387 332.690094 549.736633 343.413879 545.547852 358.737976 C 540.983398 375.436401 543.057617 391.811279 549.922729 407.43634 C 557.692566 425.120392 572.482727 433.09375 591.01825 434.572235 C 609.769409 436.067963 623.32782 427.608917 632.512939 411.529877 C 633.5802 409.661743 634.74646 407.776642 636.210266 406.2229 C 639.97229 402.229492 644.610901 403.017395 647.2146 407.82666 C 649.001953 411.128052 648.192993 414.205444 646.884583 417.398987 C 644.545044 423.108978 640.166199 427.551392 637.046021 432.879181 C 666.491272 441.558197 713.737488 415.393036 714.673279 386.636627 C 709.299133 386.123291 703.516174 387.171997 698.541809 384.792999 C 691.44989 381.401215 685.308289 382.649109 678.37146 385.720215 C 668.638977 390.028961 658.046997 390.814911 647.586731 388.356964 C 642.552307 387.174011 639.997437 382.98645 640.901978 379.296844 C 641.89502 375.246216 646.166321 372.948608 651.326599 373.974854 C 653.641052 374.435181 655.937439 374.875092 658.255188 374.571136 C 670.987793 372.901367 682.140625 367.907684 691.71106 359.176727 C 697.674255 353.736664 701.078857 346.765228 704.885986 339.930145 C 707.417664 335.38501 711.815491 333.734528 715.273315 335.397064 C 718.912903 337.146973 720.262329 341.21106 718.752197 346.224518 C 717.050354 351.874542 714.091553 356.867523 710.525757 361.527222 C 708.659607 363.965851 706.815674 366.421478 704.775269 369.11554 C 714.832825 372.502594 723.255981 369.814056 731.239075 365.181641 C 753.1745 352.452911 764.628845 324.250671 761.208679 298.891174 C 760.373291 292.697235 758.961914 286.557556 755.513916 281.142334 C 753.604309 281.841125 753.121887 283.376801 752.25647 284.540161 C 742.628052 297.483978 729.751526 305.538788 714.351013 309.829315 C 710.855591 310.803162 708.087891 309.673126 706.045715 306.856812 C 703.824585 303.793518 704.830933 300.877625 706.852661 298.134399 C 708.278687 296.199554 710.215576 294.952087 712.386902 293.993469 C 715.735962 292.514893 719.176147 291.193451 722.380737 289.444611 C 756.587524 270.77713 759.851379 221.848206 737.968262 195.956879 C 734.716187 192.109161 731.594788 188.040009 727.00415 185.72937 C 725.672913 187.138062 725.574158 188.458313 725.264648 189.764664 C 721.991333 203.57869 715.176025 215.393082 704.867676 225.142136 C 700.411011 229.35704 694.647888 229.486771 691.052368 225.692062 C 687.567322 222.013977 687.945007 218.468567 692.738159 213.521271 C 696.808777 209.319794 701.232666 205.306702 703.421753 199.804688 C 711.720154 178.947235 711.831055 158.358383 698.784485 139.35231 C 689.092773 125.233665 675.861755 114.801544 660.140137 107.806091 C 652.026428 104.195847 643.534668 102.349556 634.53894 103.450096 C 634.53894 105.433746 634.363159 107.110336 634.567749 108.739166 C 635.808716 118.62075 634.727661 128.309189 632.122864 137.842575 C 630.497803 143.790359 627.264343 148.784592 622.262573 152.496735 C 619.687866 154.407593 616.855164 155.09404 613.855896 153.483765 C 610.917664 151.906281 610.579712 149.177887 610.642334 146.187225 C 610.697693 143.543274 611.969727 141.426468 613.116089 139.215744 C 618.207581 129.397003 619.490601 119.220123 616.975952 108.327354 C 610.514404 80.337692 579.106873 70.005867 557.622437 73.960884 C 544.906799 76.301674 537.662048 85.31443 532.277161 96.079704 C 523.796509 113.033966 522.0495 131.313705 522.053894 149.944702 C 522.082336 269.771759 522.042053 389.598785 522.071899 509.425842 C 522.072388 511.343781 521.402283 513.384277 522.736023 515.653076 C 532.889648 515.653076 543.194763 515.653076 554.499939 515.652954 M 460.001251 629.601929 C 454.370758 631.31189 448.063873 628.982239 442.330841 632.380371 C 447.827759 642.888367 456.896912 647.396545 467.734375 647.528687 C 498.204956 647.900208 528.684265 647.810059 559.157471 647.56842 C 568.83313 647.49176 576.84668 643.126404 582.52533 635.164795 C 585.591614 630.865723 587.840759 626.12616 587.559021 620.577393 C 581.89624 619.653687 576.83551 620.983643 571.726074 621.329346 C 556.480469 622.360718 541.231934 623.355408 525.993408 624.483276 C 504.298187 626.089111 482.61087 627.800598 460.001251 629.601929 M 594.31366 544.706909 C 595.60437 541.175964 595.140076 537.576843 594.980957 534.069763 C 593.054016 532.911682 591.179321 533.37146 589.396606 533.36908 C 564.085938 533.335449 538.775269 533.343933 513.4646 533.343567 C 487.487885 533.343201 461.510895 533.398132 435.534698 533.285095 C 431.788574 533.268799 429.979065 534.167419 430.274994 538.317566 C 430.593933 542.790588 430.440674 547.307251 430.306976 551.799316 C 430.212555 554.971863 431.485382 555.680481 434.557373 555.412354 C 443.49173 554.632507 452.456665 554.197327 461.411499 553.658813 C 473.67923 552.921082 485.951935 552.262756 498.216736 551.480408 C 517.604675 550.243713 536.987488 548.925903 556.37323 547.654663 C 568.799866 546.839783 581.227966 546.046936 594.31366 544.706909 M 548.848389 593.38269 C 543.589294 594.447754 538.234131 594.154785 532.926392 594.53186 C 515.690247 595.756348 498.460846 597.077637 481.229492 598.369995 C 467.969421 599.364502 454.710388 600.37262 441.450592 601.371155 C 440.255615 601.461182 439.205078 601.658447 438.587494 602.937439 C 435.824005 608.6604 439.028473 613.857605 445.235382 613.637146 C 446.066254 613.607605 446.895386 613.525757 447.724945 613.463501 C 464.615082 612.19458 481.503021 610.89563 498.396057 609.666504 C 509.166901 608.882751 519.951538 608.283936 530.718872 607.456787 C 546.282898 606.261108 561.823181 604.716003 577.399719 603.736511 C 588.340942 603.048523 588.545837 603.152588 587.546326 592.186279 C 587.520203 591.898926 587.21875 591.636719 586.797607 590.970093 C 574.601685 591.756287 562.191895 592.556274 548.848389 593.38269 M 587.798157 566.757812 C 587.976257 563.211792 585.537231 563.226868 583.094727 563.357971 C 569.821655 564.070557 556.544983 564.72937 543.278931 565.556946 C 524.213684 566.74646 505.155914 568.056519 486.096039 569.331665 C 471.675598 570.296387 457.266846 571.506714 442.832611 572.160095 C 436.876648 572.429688 438.692352 576.344421 438.337402 579.502441 C 437.894592 583.442383 440.236115 583.879761 443.275085 583.656433 C 452.546936 582.975098 461.816925 582.256897 471.095978 581.689148 C 483.696045 580.918213 496.310516 580.375732 508.90686 579.55249 C 532.931335 577.982361 556.945312 576.253845 580.968079 574.657349 C 587.100037 574.249817 587.600037 573.857605 587.798157 566.757812 M 520.499756 665.280273 C 508.885345 665.280273 497.270935 665.280273 484.823792 665.280273 C 498.391815 678.715088 532.031311 676.430664 540.629028 665.281372 C 534.029724 665.281372 527.764648 665.281372 520.499756 665.280273 z" stroke-linecap="round" />
</g>
		<g transform="matrix(1 0 0 1 69.38 283.66)"  >
<path style="stroke: none; stroke-width: 1; stroke-dasharray: none; stroke-linecap: butt; stroke-dashoffset: 0; stroke-linejoin: miter; stroke-miterlimit: 4; fill: rgb(255,255,255); fill-rule: nonzero; opacity: 1;" vector-effect="non-scaling-stroke"  transform=" translate(-566.68, -780.59)" d="M 547.159424 767.313843 C 550.536133 756.983826 553.824036 747.039429 556.946899 737.043457 C 557.805298 734.295898 559.165283 733.051697 562.206177 732.908447 C 575.09668 732.301453 575.16095 732.183228 579.082581 744.47467 C 584.478516 761.386841 589.757812 778.336182 595.519958 796.645081 C 597.457764 790.509949 599.086914 785.463684 600.645752 780.395691 C 604.94519 766.417053 609.354858 752.469604 613.406982 738.419189 C 614.540771 734.487976 616.287109 733.148132 620.379211 733.5448 C 625.125366 734.004944 629.950378 733.651978 635.540161 733.651978 C 633.100952 741.629944 630.796204 749.189819 628.478149 756.745605 C 621.703857 778.827332 614.842651 800.882935 608.221375 823.010376 C 607.021301 827.021057 605.169556 828.870667 600.856262 828.415466 C 597.560852 828.067688 594.170166 828.065247 590.875 828.412903 C 586.689026 828.854492 584.985046 826.859375 583.821106 823.17334 C 578.084167 805.006042 572.164368 786.896484 566.310913 768.772034 C 560.487183 787.015503 554.599915 805.139526 548.971802 823.343628 C 547.777588 827.20636 545.852051 828.463623 541.83667 828.436951 C 526.452209 828.334534 526.383484 828.495544 521.793884 813.834045 C 513.948425 788.771912 506.203522 763.678284 498.39093 738.605835 C 497.943695 737.170593 497.397156 735.797058 498.29187 733.569885 C 504.191071 733.569885 510.311127 733.496765 516.427856 733.606079 C 518.855164 733.649414 518.977905 735.900208 519.486267 737.582397 C 525.156677 756.34552 530.795654 775.118042 536.450562 793.885803 C 536.590332 794.34967 536.814453 794.788208 537.592407 796.68396 C 540.980042 786.249023 543.994202 776.964478 547.159424 767.313843 z" stroke-linecap="round" />
</g>
		<g transform="matrix(1 0 0 1 -340.45 283.68)"  >
<path style="stroke: none; stroke-width: 1; stroke-dasharray: none; stroke-linecap: butt; stroke-dashoffset: 0; stroke-linejoin: miter; stroke-miterlimit: 4; fill: rgb(255,255,255); fill-rule: nonzero; opacity: 1;" vector-effect="non-scaling-stroke"  transform=" translate(-156.85, -780.61)" d="M 196.118073 733.614624 C 198.545532 733.624329 200.530533 733.624329 202.657318 733.624329 C 203.863693 736.547424 203.984222 739.342102 203.986969 742.138733 C 204.013397 768.959778 203.949646 795.781189 204.108917 822.601379 C 204.134262 826.869141 202.920456 828.413086 198.449951 828.40155 C 183.653091 828.363647 183.652512 828.527771 183.652313 813.869873 C 183.6521 798.554321 183.652252 783.23877 183.652252 766.338074 C 180.38031 771.726501 177.813293 775.839417 175.359543 780.018799 C 170.134567 788.918152 164.986557 797.862671 159.770432 806.767334 C 157.205658 811.145752 155.964859 811.189819 153.338043 806.738464 C 145.899643 794.133484 138.566162 781.466553 131.004364 768.50354 C 129.925705 770.076355 130.34993 771.557678 130.347488 772.898254 C 130.317139 789.557251 130.241531 806.217346 130.414505 822.874695 C 130.456131 826.883301 129.356018 828.742981 125.078117 828.366943 C 121.771706 828.076355 118.404579 828.106506 115.091484 828.354858 C 110.838829 828.673523 109.618149 826.765015 109.678139 822.765686 C 109.853012 811.106873 109.762291 799.443909 109.749184 787.782532 C 109.730637 771.290161 109.793655 754.796387 109.584061 738.306274 C 109.529861 734.042175 110.963371 732.721497 115.153343 733.21228 C 119.266808 733.694092 123.475189 733.752075 127.613426 733.509705 C 130.749451 733.32605 132.393829 734.561707 133.893906 737.145691 C 141.404099 750.082214 149.077682 762.92395 157.120804 776.520813 C 158.727966 773.907288 160.042511 771.891357 161.236893 769.80658 C 167.113144 759.549561 173.279434 749.439697 178.672638 738.933533 C 181.239868 733.932495 184.502701 732.18042 189.716476 732.98468 C 191.687836 733.288879 193.688385 733.403809 196.118073 733.614624 z" stroke-linecap="round" />
</g>
		<g transform="matrix(1 0 0 1 -192.27 284.2)"  >
<path style="stroke: none; stroke-width: 1; stroke-dasharray: none; stroke-linecap: butt; stroke-dashoffset: 0; stroke-linejoin: miter; stroke-miterlimit: 4; fill: rgb(255,255,255); fill-rule: nonzero; opacity: 1;" vector-effect="non-scaling-stroke"  transform=" translate(-305.02, -781.13)" d="M 264.655518 754.000244 C 264.665314 748.171326 264.743835 742.841248 264.656921 737.513794 C 264.612244 734.77594 265.707794 733.466248 268.481781 733.672302 C 268.812653 733.696899 269.147644 733.672119 269.48053 733.662415 C 282.98233 733.267395 282.970978 733.275208 290.75708 744.372925 C 302.105042 760.547485 313.471405 776.709106 325.461945 793.775879 C 325.461945 783.404846 325.773071 773.983154 325.370728 764.59198 C 324.999603 755.929382 325.209839 747.278931 325.046082 738.625244 C 324.981354 735.205078 326.039429 733.380005 329.92981 733.599548 C 334.861847 733.877869 339.821533 733.66687 344.402252 733.66687 C 345.733215 735.849304 345.326141 737.55542 345.32782 739.175781 C 345.355835 766.653992 345.352692 794.132263 345.344299 821.610474 C 345.342255 828.300232 345.238831 827.658081 338.907715 828.480835 C 329.800873 829.664185 324.371185 826.158875 319.475922 818.539185 C 308.59903 801.608887 296.75177 785.302063 285.184906 768.574524 C 285.184906 784.968018 285.192993 801.421753 285.182037 817.875488 C 285.174896 828.621521 285.763062 827.214844 275.833679 827.345276 C 275.00116 827.356201 274.168243 827.340027 273.335724 827.350769 C 264.651611 827.462891 264.650055 827.463623 264.650421 818.449707 C 264.651337 797.133179 264.6539 775.81665 264.655518 754.000244 z" stroke-linecap="round" />
</g>
		<g transform="matrix(1 0 0 1 -89.67 283.3)"  >
<path style="stroke: none; stroke-width: 1; stroke-dasharray: none; stroke-linecap: butt; stroke-dashoffset: 0; stroke-linejoin: miter; stroke-miterlimit: 4; fill: rgb(255,255,255); fill-rule: nonzero; opacity: 1;" vector-effect="non-scaling-stroke"  transform=" translate(-407.62, -780.23)" d="M 445.984711 761.340454 C 451.988403 779.532166 451.17746 796.556519 438.874786 811.585815 C 430.55011 821.755493 419.30484 826.92926 406.168579 827.279114 C 394.521118 827.589355 382.85675 827.216003 371.204224 827.408875 C 367.223816 827.474731 365.589081 826.37085 365.610199 822.101013 C 365.749268 793.961426 365.70755 765.820557 365.627563 737.680481 C 365.618011 734.318787 366.428894 733.180298 370.189575 733.298889 C 379.323364 733.586792 388.48053 733.007629 397.626862 733.053894 C 411.603546 733.124634 424.706573 735.899353 435.335266 745.948547 C 439.89032 750.255249 443.33902 755.267151 445.984711 761.340454 M 414.466339 754.983887 C 406.422668 750.769775 397.712189 751.400757 389.073761 751.468872 C 386.399597 751.48999 386.331299 753.265869 386.333405 755.226074 C 386.351013 771.710327 386.391266 788.194824 386.310669 804.67865 C 386.295654 807.750793 387.564087 808.837952 390.503265 808.713623 C 393.827728 808.572937 397.162231 808.670654 400.492371 808.66156 C 413.937256 808.624695 424.08078 801.912659 426.794312 789.460999 C 430.02478 774.637512 427.661469 763.048157 414.466339 754.983887 z" stroke-linecap="round" />
</g>
		<g transform="matrix(1 0 0 1 181.81 283.22)"  >
<path style="stroke: none; stroke-width: 1; stroke-dasharray: none; stroke-linecap: butt; stroke-dashoffset: 0; stroke-linejoin: miter; stroke-miterlimit: 4; fill: rgb(255,255,255); fill-rule: nonzero; opacity: 1;" vector-effect="non-scaling-stroke"  transform=" translate(-679.1, -780.15)" d="M 691.248779 739.845703 C 703.146362 768.91571 714.911682 797.624756 727.042419 827.225525 C 719.709351 827.225525 713.291626 827.234192 706.873901 827.218567 C 705.50946 827.215271 704.821777 826.294678 704.348694 825.157593 C 703.966187 824.238098 703.587402 823.317017 703.213501 822.393982 C 697.922119 809.333923 697.922424 809.333557 684.047729 809.338989 C 677.222046 809.341675 670.392578 809.481628 663.572388 809.289978 C 660.276367 809.197388 658.086792 810.139587 657.27655 813.480591 C 657.23761 813.641235 657.176331 813.799744 657.103088 813.948242 C 654.991882 818.2276 654.983582 824.894531 650.913513 826.519287 C 644.946716 828.901306 637.891663 827.366638 631.410278 827.149109 C 630.580078 824.28363 631.995117 822.413696 632.772522 820.493042 C 644.062927 792.598206 655.473328 764.75177 666.712952 736.836609 C 667.974121 733.704041 669.701721 732.364014 673.03125 732.648621 C 675.510132 732.860413 678.060547 732.965515 680.511414 732.62738 C 686.135559 731.851501 689.866699 733.661011 691.248779 739.845703 M 673.060608 771.382202 C 670.65802 777.857239 667.709534 784.1427 665.762634 791.653625 C 673.148987 791.653625 680.050415 791.578674 686.949097 791.683228 C 690.750854 791.740845 691.085083 790.14386 689.810669 787.040527 C 686.60022 779.223206 683.604248 771.317749 680.397339 763.49884 C 679.896423 762.277588 679.806946 760.480835 677.592773 760.110413 C 676.158569 763.629761 674.72876 767.138367 673.060608 771.382202 z" stroke-linecap="round" />
</g>
		<g transform="matrix(1 0 0 1 356.18 283.05)"  >
<path style="stroke: none; stroke-width: 1; stroke-dasharray: none; stroke-linecap: butt; stroke-dashoffset: 0; stroke-linejoin: miter; stroke-miterlimit: 4; fill: rgb(255,255,255); fill-rule: nonzero; opacity: 1;" vector-effect="non-scaling-stroke"  transform=" translate(-853.47, -779.98)" d="M 822.665649 767.000244 C 822.446594 757.011658 822.353699 747.5177 821.950256 738.036926 C 821.77417 733.90033 823.271362 732.559082 827.401611 732.602051 C 844.561523 732.780762 861.725342 732.768982 878.885437 732.59668 C 882.909973 732.556335 884.519043 733.684265 884.391602 737.933105 C 883.884277 754.843445 886.802612 751.891663 870.151001 752.224731 C 862.656067 752.374695 855.153931 752.354248 847.658875 752.210754 C 844.422119 752.148865 843.128113 753.33728 843.304504 756.595581 C 843.493408 760.084351 843.512207 763.601318 843.300293 767.087463 C 843.086975 770.595642 844.495728 771.766296 847.948059 771.700378 C 856.775574 771.53186 865.613098 771.815735 874.437439 771.57782 C 878.615356 771.46521 880.458618 772.556946 880.332764 777.131226 C 879.922729 792.037659 882.507202 789.916687 867.339111 790.055786 C 859.84375 790.124512 852.346619 789.997498 844.85022 789.983582 C 844.552673 789.983032 844.254639 790.236206 843.385315 790.630249 C 843.385315 795.476868 843.364136 800.587891 843.393005 805.698608 C 843.41156 808.980042 845.868713 808.731323 848.025024 808.731445 C 858.355286 808.732178 868.692139 808.897461 879.012817 808.569031 C 883.701477 808.4198 885.044312 810.113953 884.997253 814.61084 C 884.863953 827.344666 885.017151 827.344604 872.247131 827.34198 C 857.917847 827.338989 843.588562 827.355225 829.259399 827.319641 C 827.291565 827.314758 825.266907 827.664551 822.665833 826.505127 C 822.665833 807.023987 822.665833 787.262085 822.665649 767.000244 z" stroke-linecap="round" />
</g>
		<g transform="matrix(1 0 0 1 266.7 284.02)"  >
<path style="stroke: none; stroke-width: 1; stroke-dasharray: none; stroke-linecap: butt; stroke-dashoffset: 0; stroke-linejoin: miter; stroke-miterlimit: 4; fill: rgb(255,255,255); fill-rule: nonzero; opacity: 1;" vector-effect="non-scaling-stroke"  transform=" translate(-763.99, -780.96)" d="M 775.640625 769.802002 C 779.415405 758.895935 783.155151 748.39447 786.720337 737.833984 C 787.766357 734.735535 789.266052 733.278259 792.826233 733.530457 C 798.064697 733.901489 803.348877 733.62616 809.534729 733.62616 C 806.625977 741.650452 804.108887 748.649658 801.553162 755.634766 C 793.208069 778.442688 784.774597 801.218811 776.579407 824.080444 C 775.407043 827.350769 773.758057 828.553406 770.425293 828.396484 C 766.101685 828.192932 761.754456 828.186279 757.430908 828.386597 C 754.266357 828.533264 752.690857 827.303711 751.613892 824.311401 C 743.727295 802.39856 735.689941 780.539978 727.687622 758.668823 C 724.728638 750.581726 721.736084 742.506897 718.441711 733.565735 C 725.598755 733.565735 732.013428 733.494812 738.425049 733.6026 C 740.793762 733.642395 741.014099 735.813538 741.605591 737.518188 C 747.711426 755.115845 753.811157 772.715576 759.947937 790.302368 C 761.142883 793.726929 762.134949 797.252563 764.677551 801.138428 C 768.444519 790.402832 771.991821 780.293396 775.640625 769.802002 z" stroke-linecap="round" />
</g>
		<g transform="matrix(1 0 0 1 -114.29 404.49)"  >
<path style="stroke: none; stroke-width: 1; stroke-dasharray: none; stroke-linecap: butt; stroke-dashoffset: 0; stroke-linejoin: miter; stroke-miterlimit: 4; fill: rgb(255,255,255); fill-rule: nonzero; opacity: 1;" vector-effect="non-scaling-stroke"  transform=" translate(-383, -901.41)" d="M 352.650909 878.025146 C 352.650665 873.745422 352.650665 869.960571 352.650665 865.697205 C 357.06723 865.697205 360.855835 865.766357 364.640442 865.672607 C 367.134552 865.61084 368.013855 867.462891 369.14212 869.079468 C 378.003204 881.774963 386.858734 894.474426 395.725555 907.165894 C 396.072144 907.661926 396.515106 908.090698 397.650482 909.403076 C 397.650482 896.639343 397.564209 884.885742 397.721405 873.135437 C 397.753815 870.711365 396.156006 866.971802 399.434479 866.116577 C 403.526855 865.049011 408.029877 865.047119 412.244385 866.310791 C 413.444336 866.670593 413.301025 868.282715 413.302216 869.430176 C 413.323822 890.75293 413.305237 912.075745 413.353943 933.398376 C 413.360077 936.086548 412.357422 937.130676 409.572723 937.364929 C 403.055695 937.913086 398.196075 936.841064 394.225372 930.389709 C 386.431183 917.726196 377.453796 905.790894 368.106415 892.315063 C 368.106415 904.78656 368.128784 915.884338 368.100006 926.981934 C 368.072083 937.737976 368.874084 936.229187 358.73407 936.337585 C 356.938873 936.356812 355.082977 936.694763 352.651154 935.518188 C 352.651154 916.716858 352.651154 897.618469 352.650909 878.025146 z" stroke-linecap="round" />
</g>
		<g transform="matrix(1 0 0 1 129.11 403.64)"  >
<path style="stroke: none; stroke-width: 1; stroke-dasharray: none; stroke-linecap: butt; stroke-dashoffset: 0; stroke-linejoin: miter; stroke-miterlimit: 4; fill: rgb(255,255,255); fill-rule: nonzero; opacity: 1;" vector-effect="non-scaling-stroke"  transform=" translate(-626.4, -900.56)" d="M 624.072998 914.715332 C 621.542114 911.060852 618.054443 912.039856 615.207275 912.733154 C 612.195068 913.466675 613.485596 916.649902 613.402405 918.803467 C 613.229004 923.294556 613.220642 927.800171 613.364563 932.292664 C 613.462463 935.349548 612.158081 936.536133 609.214417 936.344482 C 605.922119 936.130005 602.584595 936.749329 598.960938 935.828125 C 598.960938 912.410034 598.960938 889.007202 598.960938 864.765625 C 609.489807 864.898804 620.019592 864.349854 630.59491 865.573181 C 640.731873 866.745789 647.579285 871.916382 650.948669 881.460205 C 654.71167 892.119019 651.208435 902.099609 641.773315 908.474854 C 640.972778 909.015747 640.207153 909.608154 639.108032 910.40741 C 643.540466 919.289185 649.722717 926.987061 653.846741 936.313843 C 648.796814 936.313843 644.21814 936.23407 639.644043 936.345154 C 637.115051 936.406616 636.256226 934.601379 635.221436 932.916626 C 631.562866 926.960083 627.924072 920.991516 624.072998 914.715332 M 620.556824 879.351685 C 618.076355 879.880676 614.054871 877.782593 613.626648 881.937378 C 613.091919 887.126099 611.453308 893.33252 614.348022 897.411438 C 616.743958 900.787537 622.72998 898.211121 627.104797 898.576965 C 627.735962 898.629761 628.409363 898.400024 629.038696 898.216858 C 633.409668 896.944763 636.481018 894.345093 636.565125 889.542725 C 636.650696 884.65094 634.0047 881.630005 629.317993 880.111084 C 626.698486 879.262085 624.094238 879.458679 620.556824 879.351685 z" stroke-linecap="round" />
</g>
		<g transform="matrix(1 0 0 1 44.65 405.07)"  >
<path style="stroke: none; stroke-width: 1; stroke-dasharray: none; stroke-linecap: butt; stroke-dashoffset: 0; stroke-linejoin: miter; stroke-miterlimit: 4; fill: rgb(255,255,255); fill-rule: nonzero; opacity: 1;" vector-effect="non-scaling-stroke"  transform=" translate(-541.94, -902)" d="M 555.071716 900.988281 C 555.068542 890.659912 555.177917 880.827148 555.01355 870.999023 C 554.945435 866.926941 556.42334 865.449219 560.568909 865.577393 C 572.505005 865.94635 571.299683 864.136963 571.143066 876.335815 C 570.978638 889.140137 572.211304 901.983704 570.39093 914.748291 C 568.220276 929.968201 554.363647 940.095093 539.180298 938.203674 C 521.040344 935.943909 511.806091 922.495361 512.520142 907.313904 C 513.160339 893.702087 512.654968 880.036499 512.654968 866.258789 C 517.130066 865.104736 521.276489 865.796692 525.374146 865.732544 C 528.717285 865.680115 528.315247 868.258545 528.321106 870.366882 C 528.356567 883.197083 528.296387 896.02771 528.372314 908.857605 C 528.412048 915.575928 531.69989 920.558716 537.183228 922.646118 C 545.440796 925.789429 553.840088 920.732239 554.694763 911.966858 C 555.033447 908.493835 554.959839 904.980652 555.071716 900.988281 z" stroke-linecap="round" />
</g>
		<g transform="matrix(1 0 0 1 203.38 403.6)"  >
<path style="stroke: none; stroke-width: 1; stroke-dasharray: none; stroke-linecap: butt; stroke-dashoffset: 0; stroke-linejoin: miter; stroke-miterlimit: 4; fill: rgb(255,255,255); fill-rule: nonzero; opacity: 1;" vector-effect="non-scaling-stroke"  transform=" translate(-700.67, -900.53)" d="M 695.343201 922.037415 C 703.723816 922.059082 711.714233 922.108093 719.703186 922.017822 C 723.047485 921.980042 724.432312 923.269897 724.38562 926.754761 C 724.230896 938.289307 724.939575 936.208984 715.272156 936.326843 C 704.287415 936.460754 693.298035 936.243103 682.314392 936.415588 C 678.552734 936.47467 676.938782 935.38208 676.963318 931.362854 C 677.088379 910.889221 677.050049 890.414185 676.954041 869.940125 C 676.936462 866.19397 678.1297 864.608643 682.159668 864.677124 C 694.141052 864.880676 706.130005 864.826599 718.112793 864.651428 C 721.812744 864.597351 723.537292 865.486938 723.420105 869.625854 C 723.100281 880.917847 724.360229 879.210754 713.921814 879.346436 C 708.429626 879.417847 702.93335 879.453369 697.44342 879.318604 C 694.470459 879.245728 693.253784 880.339844 693.299316 883.384766 C 693.50238 896.982544 691.987244 894.406616 703.718994 894.645508 C 707.379578 894.720093 711.074341 894.965332 714.698364 894.594299 C 721.42688 893.905212 719.980896 898.561218 720.324402 902.380859 C 720.720459 906.785156 719.39386 908.773071 714.576416 908.444641 C 708.943176 908.060486 703.260254 908.474792 697.604797 908.322083 C 694.322998 908.233521 692.830383 909.603699 693.3974 912.759827 C 693.950439 915.837952 691.707886 919.3974 695.343201 922.037415 z" stroke-linecap="round" />
</g>
		<g transform="matrix(1 0 0 1 275.08 403.88)"  >
<path style="stroke: none; stroke-width: 1; stroke-dasharray: none; stroke-linecap: butt; stroke-dashoffset: 0; stroke-linejoin: miter; stroke-miterlimit: 4; fill: rgb(255,255,255); fill-rule: nonzero; opacity: 1;" vector-effect="non-scaling-stroke"  transform=" translate(-772.37, -900.8)" d="M 778.630066 894.0802 C 781.648254 895.207458 784.378906 896.013794 786.921387 897.217346 C 793.951477 900.545044 798.84613 905.510376 799.364136 913.830627 C 799.940918 923.094299 796.190247 929.934753 788.165283 934.436584 C 774.427307 942.143127 754.91449 937.828796 747.768982 925.551514 C 746.337891 923.092651 745.25592 920.515015 745.320251 917.461975 C 749.000732 915.390381 753.246399 915.195129 757.155396 913.919617 C 759.219849 913.245972 759.964783 914.675354 760.802002 916.308777 C 764.366333 923.262695 771.478027 925.780701 778.449585 922.762573 C 781.126343 921.60376 782.73584 919.805603 782.840637 916.733704 C 782.939636 913.830872 781.464478 912.01416 779.092712 910.791748 C 775.515564 908.947998 771.555237 908.289978 767.718445 907.229736 C 761.263123 905.445679 754.912781 903.320496 750.642029 897.659241 C 743.260193 887.874207 746.397095 873.294556 757.770264 867.23584 C 767.760681 861.913696 778.1922 862.003906 788.291382 867.557556 C 790.49176 868.767456 792.284485 870.523499 793.862366 872.495667 C 799.024963 878.948792 798.307861 881.372437 790.587646 883.463318 C 788.985535 883.897156 787.380859 884.325745 785.794373 884.812134 C 783.774597 885.431274 782.591125 885.031799 781.450562 882.910889 C 778.263916 876.985413 771.344849 875.544983 765.665283 879.289062 C 761.386353 882.109924 761.305847 886.661682 765.659729 889.374023 C 769.505859 891.770142 773.888306 892.881592 778.630066 894.0802 z" stroke-linecap="round" />
</g>
		<g transform="matrix(1 0 0 1 -193.19 403.6)"  >
<path style="stroke: none; stroke-width: 1; stroke-dasharray: none; stroke-linecap: butt; stroke-dashoffset: 0; stroke-linejoin: miter; stroke-miterlimit: 4; fill: rgb(255,255,255); fill-rule: nonzero; opacity: 1;" vector-effect="non-scaling-stroke"  transform=" translate(-304.1, -900.52)" d="M 291.028778 936.370667 C 279.222229 936.205261 280.724609 937.511902 280.675049 926.521484 C 280.591003 907.88147 280.784058 889.239075 280.559509 870.601318 C 280.504028 865.99646 281.926025 864.57843 286.520416 864.685791 C 298.163696 864.95813 309.820282 864.840698 321.467743 864.648315 C 325.134247 864.58783 326.430939 865.820557 326.388275 869.520386 C 326.25412 881.154236 326.830841 879.158447 316.91449 879.346558 C 311.424255 879.450745 305.92749 879.464905 300.439117 879.316833 C 297.224304 879.230103 295.959412 880.497986 296.012543 883.714905 C 296.229218 896.846802 295.016357 894.424316 306.370422 894.641418 C 310.696198 894.724182 315.025757 894.730225 319.35144 894.652039 C 321.971527 894.604675 323.179657 895.488464 323.384125 898.345947 C 324.093262 908.256104 324.095612 908.356934 314.178772 908.354614 C 309.685089 908.353577 305.185272 908.507385 300.699707 908.318542 C 297.223328 908.17218 295.84613 909.501831 296.117157 912.985779 C 296.333557 915.767456 296.160858 918.579346 296.160858 922.029724 C 304.855408 922.029724 312.950165 921.962585 321.04248 922.074707 C 323.197876 922.104553 326.408142 921.037292 327.01059 924.078918 C 327.738373 927.753174 328.084503 931.740356 326.620056 935.358521 C 326.027069 936.82373 323.93219 936.310913 322.47995 936.317505 C 312.161224 936.364502 301.842255 936.35968 291.028778 936.370667 z" stroke-linecap="round" />
</g>
		<g transform="matrix(1 0 0 1 -272.45 404.12)"  >
<path style="stroke: none; stroke-width: 1; stroke-dasharray: none; stroke-linecap: butt; stroke-dashoffset: 0; stroke-linejoin: miter; stroke-miterlimit: 4; fill: rgb(255,255,255); fill-rule: nonzero; opacity: 1;" vector-effect="non-scaling-stroke"  transform=" translate(-224.84, -901.05)" d="M 246.446045 865.574097 C 250.779587 865.084106 254.725296 864.42218 258.566864 865.40033 C 259.708832 867.306763 258.617554 868.835022 258.07486 870.323364 C 250.5 891.09845 242.800644 911.828491 235.311722 932.634277 C 234.031662 936.190552 232.101669 937.441467 228.352768 937.41925 C 216.762054 937.350586 216.672989 937.523743 212.626343 926.761902 C 205.601303 908.079529 198.675934 889.359497 191.780762 870.628784 C 191.179642 868.995728 189.977005 867.341187 191.051971 865.144348 C 195.509079 864.317444 200.155777 864.851501 204.771912 864.82312 C 207.492416 864.806335 207.636444 867.240845 208.260193 869.028259 C 212.970551 882.525879 217.620987 896.044312 222.300873 909.552551 C 223.004745 911.584229 223.764694 913.596497 224.728119 916.249573 C 227.087219 912.971069 227.577621 909.535095 228.685806 906.421326 C 233.03331 894.2052 237.234528 881.936584 241.4151 869.661987 C 242.213135 867.318848 242.94342 865.167786 246.446045 865.574097 z" stroke-linecap="round" />
</g>
		<g transform="matrix(1 0 0 1 -263.26 284.01)"  >
<path style="stroke: none; stroke-width: 1; stroke-dasharray: none; stroke-linecap: butt; stroke-dashoffset: 0; stroke-linejoin: miter; stroke-miterlimit: 4; fill: rgb(255,255,255); fill-rule: nonzero; opacity: 1;" vector-effect="non-scaling-stroke"  transform=" translate(-234.02, -780.94)" d="M 223.82785 755.999817 C 223.881592 749.66925 223.916153 743.83844 223.985779 738.008057 C 224.021408 735.025391 225.273392 733.7005 228.554794 733.585999 C 244.350891 733.034668 244.34874 732.939514 244.347641 748.581299 C 244.345947 772.906616 244.346695 797.231873 244.337006 821.55719 C 244.33432 828.301147 244.319031 828.30304 237.396835 828.317444 C 235.064285 828.322327 232.70549 828.090454 230.404556 828.359253 C 225.461151 828.936951 223.641403 827.125732 223.697159 821.976685 C 223.933487 800.153137 223.813202 778.325745 223.82785 755.999817 z" stroke-linecap="round" />
</g>
		<g transform="matrix(1 0 0 1 -34.07 403.59)"  >
<path style="stroke: none; stroke-width: 1; stroke-dasharray: none; stroke-linecap: butt; stroke-dashoffset: 0; stroke-linejoin: miter; stroke-miterlimit: 4; fill: rgb(255,255,255); fill-rule: nonzero; opacity: 1;" vector-effect="non-scaling-stroke"  transform=" translate(-463.21, -900.52)" d="M 491.348389 871.038208 C 491.319031 879.35791 491.319031 879.357971 483.517883 879.371399 C 470.322998 879.394226 470.325134 879.394165 470.331329 892.503845 C 470.337494 905.498413 470.249573 918.493958 470.400085 931.486816 C 470.441864 935.092529 469.334167 936.701843 465.555878 936.426575 C 462.2565 936.186157 458.925751 936.376465 455.853149 936.376465 C 454.080658 934.309814 454.699524 932.223877 454.692474 930.307251 C 454.636749 915.147095 454.546539 899.985474 454.726074 884.827271 C 454.774872 880.704285 453.409882 879.088318 449.255859 879.312134 C 444.624878 879.561646 439.970123 879.369385 434.946533 879.369385 C 434.946533 874.488831 434.946533 870.079407 434.946533 865.528381 C 436.20993 864.264832 437.965973 864.756165 439.565887 864.75116 C 454.8927 864.703247 470.222504 864.867676 485.5448 864.595703 C 490.188019 864.513306 492.003418 866.041138 491.348389 871.038208 z" stroke-linecap="round" />
</g>
		<g transform="matrix(1 0 0 1 -38.12 -310.29)"  >
<path style="stroke: none; stroke-width: 1; stroke-dasharray: none; stroke-linecap: butt; stroke-dashoffset: 0; stroke-linejoin: miter; stroke-miterlimit: 4; fill: rgb(255,255,255); fill-rule: nonzero; opacity: 1;" vector-effect="non-scaling-stroke"  transform=" translate(-459.17, -186.64)" d="M 469.031219 234.006958 C 478.947968 221.64917 475.779816 203.180542 462.312073 193.901779 C 454.804047 188.729034 446.69101 186.039825 437.35437 188.057861 C 431.610138 189.299408 427.236542 186.4897 426.706116 181.8927 C 426.073975 176.414276 429.585083 172.706268 435.848907 172.713684 C 444.119904 172.723465 452.530792 171.586411 460.485565 175.024979 C 462.087128 175.717285 463.458679 175.597076 464.329773 173.972107 C 469.233643 164.824509 473.035034 151.499039 464.656342 141.143875 C 460.823914 136.40744 455.768005 133.751129 449.965942 132.359985 C 443.544983 130.820435 440.431335 127.412804 441.393738 122.857994 C 442.564362 117.318047 447.264587 114.877129 453.764771 116.296417 C 470.806427 120.017387 482.225555 129.889053 485.791351 147.189667 C 488.066681 158.229126 486.048035 169.093124 480.31012 178.943039 C 478.148956 182.652924 478.492188 185.16745 481.248047 188.602203 C 491.161743 200.958237 493.824554 215.297668 490.099304 230.459518 C 486.213501 246.274643 470.253479 258.118317 455.203461 257.334534 C 449.620331 257.043762 445.902252 253.830505 445.677887 249.102249 C 445.45755 244.460342 447.620087 241.9767 452.348206 241.671768 C 458.772156 241.257492 464.228119 238.786621 469.031219 234.006958 z" stroke-linecap="round" />
</g>
		<g transform="matrix(1 0 0 1 -147.03 -197.89)"  >
<path style="stroke: none; stroke-width: 1; stroke-dasharray: none; stroke-linecap: butt; stroke-dashoffset: 0; stroke-linejoin: miter; stroke-miterlimit: 4; fill: rgb(255,255,255); fill-rule: nonzero; opacity: 1;" vector-effect="non-scaling-stroke"  transform=" translate(-350.26, -299.04)" d="M 383.617249 328.448273 C 385.91156 327.766174 387.789795 326.910614 389.726196 326.748047 C 393.493073 326.431854 396.902069 327.611237 398.053772 331.549988 C 399.168823 335.363373 398.178986 338.962799 394.476898 341.062469 C 382.532471 347.8367 361.019928 349.781738 347.643188 337.639038 C 333.036407 324.379822 330.438293 308.44455 337.024261 290.348816 C 335.813293 288.714111 333.914215 288.709229 332.203705 288.249481 C 318.460175 284.555603 308.718048 276.017426 302.941986 263.179718 C 300.047852 256.747223 304.454681 250.991623 311.072479 251.68187 C 314.366821 252.025436 316.111481 254.066818 317.138611 256.86496 C 321.888824 269.805542 332.797089 273.581787 344.887238 275.628601 C 347.709747 276.106415 350.011444 274.887207 352.34906 273.484619 C 358.730988 269.655334 363.689789 269.668518 366.288818 273.341888 C 368.97998 277.145477 367.259521 281.450073 361.158691 286.177429 C 351.17749 293.911713 347.884094 303.443329 350.98819 314.084991 C 354.02182 324.485016 366.738922 335.101288 383.617249 328.448273 z" stroke-linecap="round" />
</g>
		<g transform="matrix(1 0 0 1 69.55 -309.97)"  >
<path style="stroke: none; stroke-width: 1; stroke-dasharray: none; stroke-linecap: butt; stroke-dashoffset: 0; stroke-linejoin: miter; stroke-miterlimit: 4; fill: rgb(255,255,255); fill-rule: nonzero; opacity: 1;" vector-effect="non-scaling-stroke"  transform=" translate(-566.85, -186.96)" d="M 573.6875 241.764053 C 578.041687 243.256607 581.174927 245.64621 580.049011 250.253311 C 578.949402 254.75325 575.376892 257.188721 570.786377 257.25528 C 561.827148 257.385132 554.286987 253.533783 547.820618 247.720276 C 531.112 232.698532 529.711121 207.199142 544.779419 188.636948 C 547.610474 185.14949 547.603577 182.717163 545.741089 178.974243 C 540.514099 168.470169 537.990417 157.442047 540.707458 145.641998 C 544.337036 129.879242 560.286987 116.493477 575.4104 116.654434 C 580.61499 116.709831 584.460693 119.84874 584.799133 124.317665 C 585.120911 128.565994 582.43396 131.366531 577.067993 132.375656 C 561.271423 135.34642 553.452637 148.106003 557.718262 163.966354 C 557.977478 164.930084 558.29248 165.87999 558.611389 166.826294 C 561.625916 175.772369 561.644592 175.83902 570.499695 173.622437 C 577.255676 171.931335 584.102966 172.546494 590.881042 172.871811 C 596.383301 173.135895 600.041687 177.938828 599.259277 182.696655 C 598.550964 187.003891 594.569153 189.343979 588.599121 188.14624 C 569.025269 184.219269 553.224243 199.226074 551.161316 213.574875 C 548.997864 228.622849 560.033081 241.103348 573.6875 241.764053 z" stroke-linecap="round" />
</g>
		<g transform="matrix(1 0 0 1 178.5 -198.02)"  >
<path style="stroke: none; stroke-width: 1; stroke-dasharray: none; stroke-linecap: butt; stroke-dashoffset: 0; stroke-linejoin: miter; stroke-miterlimit: 4; fill: rgb(255,255,255); fill-rule: nonzero; opacity: 1;" vector-effect="non-scaling-stroke"  transform=" translate(-675.78, -298.91)" d="M 708.197205 281.321014 C 702.206909 285.79129 695.393372 287.530975 688.319702 289.851105 C 689.51416 295.340576 691.285461 300.449127 691.560486 305.948608 C 692.849304 331.724304 671.287109 350.489502 645.734192 345.677429 C 641.609192 344.900604 637.601868 343.908569 633.820801 342.189392 C 628.661133 339.843414 626.561401 335.593414 628.207825 331.454926 C 629.940796 327.098969 634.614624 325.520599 640.051575 327.475342 C 645.36792 329.386719 650.57074 331.488647 656.50238 330.156189 C 666.135254 327.99234 672.765503 322.791962 674.972656 312.855835 C 677.160034 303.008789 674.017151 294.823181 666.794189 288.082703 C 664.609436 286.043884 661.958313 284.472137 660.281189 281.93045 C 658.53009 279.276611 657.800537 276.411499 659.779175 273.53775 C 661.890381 270.471283 664.913574 270.138275 668.218445 271.108276 C 669.329407 271.434326 670.573364 271.731201 671.428345 272.438354 C 678.457825 278.252319 685.659058 275.3396 692.57428 272.584595 C 699.654358 269.763947 705.763916 265.54184 708.697998 257.897797 C 710.950012 252.030731 714.712585 250.144409 719.434021 252.161072 C 723.600159 253.940552 725.179504 259.139832 722.7948 264.112335 C 719.500244 270.982086 714.755981 276.706482 708.197205 281.321014 z" stroke-linecap="round" />
</g>
</g>
</g>
<g transform="matrix(NaN NaN NaN NaN 0 0)"  >
<g style=""   >
</g>
</g>
</svg>