<?xml version="1.0" standalone="no"?>
<!DOCTYPE svg PUBLIC "-//W3C//DTD SVG 20010904//EN"
 "http://www.w3.org/TR/2001/REC-SVG-20010904/DTD/svg10.dtd">
<svg version="1.0" xmlns="http://www.w3.org/2000/svg"
 width="500.000000pt" height="500.000000pt" viewBox="0 0 500.000000 500.000000"
 preserveAspectRatio="xMidYMid meet">
<metadata>
Created by potrace 1.10, written by Peter Selinger 2001-2011
</metadata>
<g transform="translate(0.000000,500.000000) scale(0.050000,-0.050000)"
fill="#000000" stroke="none">
<path d="M4880 6086 l-70 -8 -36 -324 c-20 -178 -38 -342 -40 -364 -4 -38 8
-40 246 -40 l250 0 6 85 6 85 -162 0 c-146 0 -162 4 -152 35 14 45 59 397 61
473 1 64 -7 68 -109 58z"/>
<path d="M5423 6081 c-13 -9 -85 -556 -91 -691 -2 -33 13 -41 82 -46 97 -7 85
-44 136 396 18 149 36 285 42 303 9 33 -131 64 -169 38z"/>
<path d="M2080 6020 c0 -33 0 -67 0 -75 0 -8 41 -16 90 -17 120 -2 117 9 81
-264 -44 -342 -47 -324 56 -324 l87 0 24 235 c38 367 28 342 148 349 l104 6 6
75 6 75 -301 0 -301 0 0 -60z"/>
<path d="M2760 6061 c0 -11 79 -22 175 -26 l175 -7 -175 -4 c-225 -5 -235 -44
-11 -44 207 0 187 -36 -24 -44 l-150 -6 -33 -250 c-49 -366 -52 -340 51 -340
l88 0 14 121 c20 169 87 167 174 -6 l58 -115 99 0 c118 0 118 2 30 141 -82
129 -83 132 -30 149 128 41 159 274 51 382 l-68 68 -212 0 c-122 0 -212 -8
-212 -19z m367 -183 c58 -82 -11 -156 -145 -157 l-87 -1 13 83 c18 112 23 117
112 117 56 0 86 -12 107 -42z"/>
<path d="M3423 5865 c-44 -412 10 -525 254 -525 221 0 307 102 342 406 10 90
25 202 32 249 l14 85 -91 0 c-103 0 -88 37 -135 -325 -30 -230 -109 -308 -220
-218 -45 36 -35 385 14 513 9 24 -8 30 -88 30 l-98 0 -24 -215z"/>
<path d="M4163 5905 c-13 -96 -28 -231 -36 -300 l-13 -125 262 0 c153 0 267 8
274 20 8 13 -54 20 -170 20 l-183 0 7 65 6 65 152 -7 152 -6 13 64 c7 35 13
72 13 82 0 9 -73 17 -162 17 -159 0 -162 1 -151 45 7 25 13 55 13 67 0 16 54
20 180 13 l180 -11 0 52 c0 28 5 65 12 82 11 28 -20 32 -257 32 l-270 0 -22
-175z"/>
<path d="M5705 6055 c5 -14 -7 -155 -27 -315 -52 -418 -54 -400 41 -400 98 0
96 -5 111 211 7 98 17 192 22 207 5 16 69 -72 142 -196 132 -223 133 -224 203
-218 l71 6 45 350 c24 193 45 357 46 365 0 8 -39 15 -89 15 -103 0 -100 5
-121 -245 -15 -186 -16 -186 -152 54 l-107 190 -97 1 c-70 0 -95 -7 -88 -25z"/>
<path d="M6480 6064 c0 -8 -13 -123 -29 -255 -16 -131 -34 -291 -40 -354 l-12
-115 272 0 272 0 -6 65 c-3 36 2 77 10 90 12 19 -27 25 -167 25 l-183 0 7 65
6 65 152 -7 c146 -7 153 -5 165 40 30 113 26 117 -147 117 l-161 0 13 55 c8
30 16 60 20 66 3 7 82 8 174 3 l168 -9 13 65 c7 36 13 73 13 83 0 9 -121 17
-270 17 -148 0 -270 -7 -270 -16z m356 -599 c-41 -4 -113 -4 -160 0 -48 5 -14
8 74 8 88 0 126 -3 86 -8z m-100 -60 c-52 -4 -142 -4 -200 0 -58 4 -16 8 94 8
110 0 158 -4 106 -8z"/>
<path d="M4100 5440 c0 -12 101 -22 255 -24 l255 -4 -260 -11 c-346 -15 -337
-51 13 -51 l263 0 5 55 6 55 -268 0 c-166 0 -269 -8 -269 -20z"/>
<path d="M5394 5087 c-28 -27 -13 -70 21 -63 19 4 35 19 35 35 0 31 -35 49
-56 28z"/>
<path d="M3820 5049 c0 -19 14 -29 33 -25 51 9 57 56 9 56 -25 0 -42 -13 -42
-31z"/>
<path d="M4655 5066 c-23 -40 10 -286 38 -286 37 0 30 282 -6 294 -13 5 -27 1
-32 -8z"/>
<path d="M2920 4920 c0 -111 6 -140 30 -140 19 0 30 19 30 50 0 28 9 50 20 50
10 0 34 -22 52 -50 18 -27 50 -50 71 -50 36 0 37 4 9 43 -26 38 -26 48 2 90
56 86 9 147 -114 147 l-100 0 0 -140z m165 68 c25 -25 -11 -68 -57 -68 -35 0
-48 11 -48 40 0 39 75 59 105 28z"/>
<path d="M3600 5030 c0 -16 -9 -30 -20 -30 -11 0 -20 -13 -20 -30 0 -16 9 -30
20 -30 11 0 20 -36 20 -80 0 -76 3 -80 60 -80 63 0 82 33 30 53 -41 16 -38
100 5 116 33 13 33 15 0 40 -19 14 -35 36 -35 48 0 13 -13 23 -30 23 -16 0
-30 -13 -30 -30z"/>
<path d="M5145 5006 c-14 -31 -17 -58 -7 -65 11 -6 22 -43 25 -81 6 -60 15
-71 62 -76 58 -7 76 24 25 43 -42 16 -38 106 5 122 33 13 33 15 0 40 -19 14
-35 36 -35 48 0 43 -50 23 -75 -31z"/>
<path d="M3294 4964 c-41 -44 -44 -103 -8 -152 30 -42 156 -38 170 5 7 21 -6
24 -54 14 -39 -9 -62 -6 -62 7 0 12 26 22 59 22 73 0 85 19 54 81 -30 62 -113
74 -159 23z"/>
<path d="M3834 4987 c-37 -37 -14 -207 27 -207 37 0 40 10 35 103 -6 97 -30
137 -62 104z"/>
<path d="M4032 4957 c-42 -61 -40 -103 6 -145 46 -42 152 -36 152 8 0 21 -16
28 -53 24 -63 -7 -90 26 -56 67 15 18 41 24 73 16 41 -10 49 -6 43 25 -11 59
-125 62 -165 5z"/>
<path d="M4324 4895 l6 -105 95 -6 95 -6 0 111 c0 85 -7 111 -30 111 -22 0
-30 -22 -30 -80 0 -67 -7 -80 -40 -80 -33 0 -40 13 -40 80 0 59 -8 80 -31 80
-25 0 -30 -21 -25 -105z"/>
<path d="M4862 4982 c-37 -24 -11 -61 36 -48 21 5 44 0 51 -12 8 -14 -5 -22
-35 -22 -27 0 -60 -13 -74 -30 -39 -47 10 -90 102 -90 l78 0 0 86 c0 120 -70
171 -158 116z"/>
<path d="M5393 4987 c-28 -29 -14 -207 17 -207 23 0 30 26 30 110 0 102 -13
130 -47 97z"/>
<path d="M5593 4963 c-39 -42 -43 -125 -9 -159 39 -39 152 -30 175 15 66 123
-74 246 -166 144z m120 -53 c6 -17 0 -44 -14 -61 -33 -39 -92 9 -72 59 15 41
71 41 86 2z"/>
<path d="M5900 4888 c0 -131 53 -159 64 -33 4 51 16 75 36 75 20 0 32 -24 36
-75 10 -112 64 -102 64 13 0 103 -24 128 -125 128 l-75 0 0 -108z"/>
<path d="M2144 4917 c7 -20 177 -25 622 -17 9 0 11 9 4 20 -18 30 -636 27
-626 -3z"/>
<path d="M6264 4918 c5 -15 107 -23 316 -23 209 0 311 8 316 23 5 15 -87 22
-316 22 -229 0 -321 -7 -316 -22z"/>
</g>
</svg>
